<svg width="18" height="28" viewBox="0 0 18 28" fill="none" xmlns="http://www.w3.org/2000/svg">
<path d="M14.1049 27.8554C13.1586 27.8554 12.2695 27.487 11.6003 26.8183L1.38988 16.6074C0.704047 15.922 0.329047 14.9737 0.356964 14.0012C0.328631 13.0274 0.704047 12.0787 1.38988 11.3924L11.6007 1.18161C12.2695 0.512865 13.1586 0.144531 14.1049 0.144531C15.0511 0.144531 15.9403 0.512865 16.609 1.18161C17.9899 2.56245 17.9899 4.80953 16.609 6.19036L8.79946 13.9999L16.609 21.8091C17.9899 23.1899 17.9899 25.437 16.609 26.8179C15.9399 27.487 15.0507 27.8554 14.1049 27.8554ZM14.1049 1.8112C13.604 1.8112 13.1332 2.0062 12.779 2.35995L2.76571 12.5708C2.39446 12.9429 2.41863 13.4391 2.41863 13.9687C2.41863 13.9899 2.41863 14.0108 2.41863 14.0316C2.41863 14.5612 2.39446 15.057 2.76571 15.4287L12.8778 25.6395C13.232 25.9937 13.6536 26.1883 14.154 26.1883C14.6553 26.1883 15.1011 25.9933 15.4553 25.6395C16.1865 24.9083 16.174 23.7187 15.4428 22.9874L7.03821 14.5891C6.7128 14.2637 6.70988 13.7362 7.0353 13.4108L15.4324 5.01245C16.1632 4.2812 16.1628 3.09161 15.432 2.36036C15.0778 2.0062 14.6057 1.8112 14.1049 1.8112Z" fill="black"/>
</svg>
