<svg width="25" height="20" viewBox="0 0 25 20" fill="none" xmlns="http://www.w3.org/2000/svg">
<path d="M7.56389 0.252422L0.243188 9.34061L0.202095 9.38775C0.076993 9.54309 0.00962387 9.74297 9.53674e-07 9.94628V10.0537C0.00962387 10.257 0.076993 10.4569 0.202095 10.6122L0.238123 10.6504L7.56389 19.7476C7.83494 20.0841 8.2744 20.0841 8.54545 19.7476C8.81651 19.411 8.81651 18.8653 8.54545 18.5288L2.28982 10.7599L24.3059 10.7605C24.6892 10.7605 25 10.3747 25 9.89872C25 9.42275 24.6892 9.0369 24.3059 9.0369L2.45291 9.03622L8.54545 1.47122C8.81651 1.13466 8.81651 0.588985 8.54545 0.252422C8.2744 -0.0841408 7.83494 -0.0841408 7.56389 0.252422ZM0.614337 9.898L8.05467 19.1382L0.692962 10.0002L0.692877 9.99685L0.733927 9.95007L0.775868 9.898H0.614337Z" fill="white"/>
</svg>
