<svg width="455" height="162" viewBox="0 0 455 162" fill="none" xmlns="http://www.w3.org/2000/svg">
<path d="M185.872 142.704C184.677 142.704 183.909 142.277 183.568 141.424C183.227 140.571 183.056 139.205 183.056 137.328C182.117 137.968 181.051 138.693 179.856 139.504C178.704 140.272 177.424 140.955 176.016 141.552C174.608 142.149 173.072 142.448 171.408 142.448C169.403 142.448 167.781 141.68 166.544 140.144C165.307 138.565 164.688 136.603 164.688 134.256C164.688 132.635 165.051 131.461 165.776 130.736C166.544 130.011 167.312 129.371 168.08 128.816C168.507 128.517 169.083 128.091 169.808 127.536C170.533 126.981 171.28 126.448 172.048 125.936C172.859 125.381 173.52 124.997 174.032 124.784C174.672 124.528 175.589 124.336 176.784 124.208C178.021 124.037 179.301 123.909 180.624 123.824C181.989 123.739 183.163 123.696 184.144 123.696C184.272 122.459 184.336 121.328 184.336 120.304C184.336 118.213 183.995 116.592 183.312 115.44C182.629 114.288 181.435 113.712 179.728 113.712C176.912 113.712 174.565 114.48 172.688 116.016C171.749 116.827 171.003 117.637 170.448 118.448C169.893 119.216 169.616 120.304 169.616 121.712L169.68 123.568L167.952 124.784C167.952 124.571 167.952 124.357 167.952 124.144C167.995 123.888 168.016 123.675 168.016 123.504C168.016 122.821 167.973 122.16 167.888 121.52C167.803 120.837 167.675 120.069 167.504 119.216C167.376 118.491 167.269 117.979 167.184 117.68C167.141 117.381 167.12 117.168 167.12 117.04C167.12 116.528 167.419 115.973 168.016 115.376C168.656 114.779 169.189 114.331 169.616 114.032C171.195 113.008 173.072 112.304 175.248 111.92C177.467 111.493 179.557 111.28 181.52 111.28C184.379 111.28 186.427 111.899 187.664 113.136C188.901 114.331 189.52 115.888 189.52 117.808C189.52 119.259 189.456 120.923 189.328 122.8C189.243 124.635 189.136 126.491 189.008 128.368C188.923 130.245 188.816 131.995 188.688 133.616C188.603 135.195 188.56 136.496 188.56 137.52C188.56 138.672 188.901 139.461 189.584 139.888C190.267 140.272 191.184 140.464 192.336 140.464C192.635 140.464 192.933 140.464 193.232 140.464C193.573 140.421 193.915 140.379 194.256 140.336L194.576 140.72L193.552 142.448C193.211 142.405 192.656 142.384 191.888 142.384C191.12 142.427 190.309 142.469 189.456 142.512C188.603 142.555 187.835 142.597 187.152 142.64C186.512 142.683 186.085 142.704 185.872 142.704ZM174.608 138.288C175.547 138.288 176.549 138.117 177.616 137.776C178.683 137.392 179.6 136.987 180.368 136.56C181.477 135.792 182.224 135.003 182.608 134.192C183.035 133.381 183.312 132.379 183.44 131.184C183.568 129.947 183.717 128.389 183.888 126.512C181.328 126.597 179.216 126.768 177.552 127.024C175.931 127.237 174.629 127.515 173.648 127.856C172.24 128.368 171.195 129.136 170.512 130.16C169.829 131.184 169.488 132.251 169.488 133.36C169.488 134.64 169.915 135.792 170.768 136.816C171.664 137.797 172.944 138.288 174.608 138.288ZM225.757 142.64C223.794 142.64 222.28 142.405 221.213 141.936C220.146 141.424 219.421 140.613 219.037 139.504C218.653 138.352 218.461 136.859 218.461 135.024C218.461 134.085 218.589 132.123 218.845 129.136C218.845 129.477 218.866 129.307 218.909 128.624C218.994 127.899 219.08 126.875 219.165 125.552C219.293 124.229 219.4 122.821 219.485 121.328C219.57 119.792 219.656 118.384 219.741 117.104C219.826 115.781 219.869 114.821 219.869 114.224H215.517L217.181 112.304H219.997L220.445 105.968C220.445 105.755 220.68 105.435 221.149 105.008C221.661 104.581 222.258 104.112 222.941 103.6C223.624 103.088 224.264 102.661 224.861 102.32C225.501 101.979 225.97 101.808 226.269 101.808L226.909 102.384C226.397 103.963 225.949 105.627 225.565 107.376C225.224 109.125 224.946 110.768 224.733 112.304H234.397C234.653 112.304 234.781 112.432 234.781 112.688C234.781 113.029 234.376 113.499 233.565 114.096C232.754 114.736 232.114 114.992 231.645 114.864C230.749 114.693 229.704 114.565 228.509 114.48C227.314 114.352 225.97 114.267 224.477 114.224C223.453 121.648 222.941 127.899 222.941 132.976C222.941 134.981 223.154 136.645 223.581 137.968C224.05 139.291 225.16 139.952 226.909 139.952C228.488 139.952 229.661 139.632 230.429 138.992C231.24 138.309 231.816 137.328 232.157 136.048C232.498 134.768 232.818 133.253 233.117 131.504L234.845 130.8L235.165 131.12C235.122 131.333 235.037 131.824 234.909 132.592C234.781 133.317 234.653 134.128 234.525 135.024C234.397 135.92 234.29 136.731 234.205 137.456C234.12 138.181 234.077 138.608 234.077 138.736C234.034 139.589 233.544 140.315 232.605 140.912C231.709 141.467 230.621 141.893 229.341 142.192C228.061 142.491 226.866 142.64 225.757 142.64ZM235.752 142.512L236.84 140.464C236.968 140.507 237.096 140.528 237.224 140.528C237.394 140.528 237.565 140.528 237.736 140.528C238.845 140.528 239.976 140.272 241.128 139.76C242.28 139.248 243.026 138.48 243.368 137.456C243.538 136.987 243.688 136.155 243.816 134.96C243.986 133.723 244.136 132.315 244.264 130.736C244.434 129.115 244.584 127.493 244.712 125.872C244.84 124.208 244.925 122.693 244.968 121.328C245.053 119.963 245.095 118.917 245.095 118.192C245.095 116.571 245.01 115.376 244.84 114.608C244.669 113.797 244.221 113.264 243.496 113.008C242.813 112.752 241.682 112.624 240.104 112.624C239.592 112.624 239.144 112.645 238.76 112.688C238.376 112.731 238.013 112.816 237.672 112.944L238.76 111.024C238.888 111.067 239.592 111.131 240.872 111.216C242.194 111.259 243.837 111.28 245.8 111.28C246.696 111.28 247.506 111.259 248.232 111.216C248.957 111.131 249.426 111.088 249.64 111.088C250.28 111.088 250.6 111.408 250.6 112.048C250.6 112.176 250.514 112.667 250.344 113.52C250.216 114.373 250.045 115.248 249.832 116.144C250.173 115.803 250.642 115.397 251.24 114.928C251.88 114.416 252.541 113.883 253.224 113.328C255.272 111.792 257.448 111.024 259.752 111.024C261.928 111.024 263.506 111.515 264.488 112.496C265.512 113.435 266.024 114.864 266.024 116.784C266.024 117.253 265.81 117.744 265.384 118.256C265 118.768 264.552 119.237 264.04 119.664C263.528 120.091 263.101 120.411 262.76 120.624L261.8 120.304C261.842 120.133 261.864 119.963 261.864 119.792C261.864 119.621 261.864 119.451 261.864 119.28C261.864 118.555 261.736 117.787 261.48 116.976C261.266 116.165 260.861 115.483 260.264 114.928C259.666 114.373 258.813 114.096 257.704 114.096C256.637 114.096 255.442 114.523 254.12 115.376C252.797 116.187 251.688 117.211 250.792 118.448C250.152 119.301 249.725 120.091 249.512 120.816C249.298 121.499 249.17 122.309 249.128 123.248C249.128 124.144 249.085 125.339 249 126.832C248.957 128.155 248.914 129.52 248.872 130.928C248.829 132.336 248.808 133.659 248.808 134.896C248.808 135.451 248.808 135.963 248.808 136.432C248.808 136.901 248.829 137.349 248.872 137.776C248.957 138.885 249.533 139.653 250.6 140.08C251.709 140.464 252.925 140.656 254.248 140.656C255.144 140.656 255.997 140.592 256.808 140.464L255.656 142.384C254.589 142.256 253.245 142.149 251.624 142.064C250.002 141.979 248.082 141.936 245.864 141.936C243.645 141.936 241.682 141.979 239.976 142.064C238.269 142.192 236.861 142.341 235.752 142.512ZM289.497 142.704C288.302 142.704 287.534 142.277 287.193 141.424C286.852 140.571 286.681 139.205 286.681 137.328C285.742 137.968 284.676 138.693 283.481 139.504C282.329 140.272 281.049 140.955 279.641 141.552C278.233 142.149 276.697 142.448 275.033 142.448C273.028 142.448 271.406 141.68 270.169 140.144C268.932 138.565 268.313 136.603 268.313 134.256C268.313 132.635 268.676 131.461 269.401 130.736C270.169 130.011 270.937 129.371 271.705 128.816C272.132 128.517 272.708 128.091 273.433 127.536C274.158 126.981 274.905 126.448 275.673 125.936C276.484 125.381 277.145 124.997 277.657 124.784C278.297 124.528 279.214 124.336 280.409 124.208C281.646 124.037 282.926 123.909 284.249 123.824C285.614 123.739 286.788 123.696 287.769 123.696C287.897 122.459 287.961 121.328 287.961 120.304C287.961 118.213 287.62 116.592 286.937 115.44C286.254 114.288 285.06 113.712 283.353 113.712C280.537 113.712 278.19 114.48 276.313 116.016C275.374 116.827 274.628 117.637 274.073 118.448C273.518 119.216 273.241 120.304 273.241 121.712L273.305 123.568L271.577 124.784C271.577 124.571 271.577 124.357 271.577 124.144C271.62 123.888 271.641 123.675 271.641 123.504C271.641 122.821 271.598 122.16 271.513 121.52C271.428 120.837 271.3 120.069 271.129 119.216C271.001 118.491 270.894 117.979 270.809 117.68C270.766 117.381 270.745 117.168 270.745 117.04C270.745 116.528 271.044 115.973 271.641 115.376C272.281 114.779 272.814 114.331 273.241 114.032C274.82 113.008 276.697 112.304 278.873 111.92C281.092 111.493 283.182 111.28 285.145 111.28C288.004 111.28 290.052 111.899 291.289 113.136C292.526 114.331 293.145 115.888 293.145 117.808C293.145 119.259 293.081 120.923 292.953 122.8C292.868 124.635 292.761 126.491 292.633 128.368C292.548 130.245 292.441 131.995 292.313 133.616C292.228 135.195 292.185 136.496 292.185 137.52C292.185 138.672 292.526 139.461 293.209 139.888C293.892 140.272 294.809 140.464 295.961 140.464C296.26 140.464 296.558 140.464 296.857 140.464C297.198 140.421 297.54 140.379 297.881 140.336L298.201 140.72L297.177 142.448C296.836 142.405 296.281 142.384 295.513 142.384C294.745 142.427 293.934 142.469 293.081 142.512C292.228 142.555 291.46 142.597 290.777 142.64C290.137 142.683 289.71 142.704 289.497 142.704ZM278.233 138.288C279.172 138.288 280.174 138.117 281.241 137.776C282.308 137.392 283.225 136.987 283.993 136.56C285.102 135.792 285.849 135.003 286.233 134.192C286.66 133.381 286.937 132.379 287.065 131.184C287.193 129.947 287.342 128.389 287.513 126.512C284.953 126.597 282.841 126.768 281.177 127.024C279.556 127.237 278.254 127.515 277.273 127.856C275.865 128.368 274.82 129.136 274.137 130.16C273.454 131.184 273.113 132.251 273.113 133.36C273.113 134.64 273.54 135.792 274.393 136.816C275.289 137.797 276.569 138.288 278.233 138.288ZM299.669 142.256C298.858 142.256 298.453 142.085 298.453 141.744C298.453 141.403 298.602 141.083 298.901 140.784C299.242 140.443 299.562 140.123 299.861 139.824C300.33 139.397 301.013 138.651 301.909 137.584C302.847 136.517 303.871 135.344 304.981 134.064C306.133 132.741 307.221 131.461 308.245 130.224C309.311 128.987 310.165 127.984 310.805 127.216C313.493 123.888 315.477 121.307 316.757 119.472C318.037 117.637 318.677 116.571 318.677 116.272C318.677 115.589 318.229 115.227 317.333 115.184C316.906 115.141 316.159 115.12 315.093 115.12C314.026 115.077 312.938 115.056 311.829 115.056C310.762 115.056 309.994 115.056 309.525 115.056C308.458 115.056 307.605 115.227 306.965 115.568C306.367 115.909 305.983 116.357 305.812 116.912C305.642 117.68 305.429 118.533 305.173 119.472C304.959 120.368 304.831 121.051 304.789 121.52L302.741 121.968C302.869 121.499 303.061 120.837 303.317 119.984C303.573 119.131 303.807 118.213 304.021 117.232L304.853 113.648C305.237 111.984 305.791 111.152 306.517 111.152C307.413 111.152 308.415 111.152 309.525 111.152C310.634 111.152 311.701 111.173 312.725 111.216C313.791 111.216 314.687 111.237 315.413 111.28C316.138 111.28 316.565 111.28 316.693 111.28C318.783 111.237 320.426 111.195 321.621 111.152C322.815 111.067 323.711 111.003 324.309 110.96C324.949 110.875 325.461 110.832 325.845 110.832C326.314 110.832 326.549 111.003 326.549 111.344C326.549 111.685 326.122 112.432 325.269 113.584C324.458 114.693 323.37 116.059 322.005 117.68C320.682 119.301 319.231 121.051 317.653 122.928C316.074 124.805 314.517 126.64 312.981 128.432C311.018 130.779 309.482 132.741 308.373 134.32C307.306 135.856 306.751 136.88 306.709 137.392C307.178 137.435 307.903 137.499 308.885 137.584C309.866 137.627 311.082 137.648 312.533 137.648C315.647 137.648 317.674 137.584 318.613 137.456C320.874 137.2 322.303 136.411 322.901 135.088C323.029 134.789 323.199 134.384 323.413 133.872C323.626 133.36 323.818 132.869 323.989 132.4C324.159 131.931 324.245 131.653 324.245 131.568L326.421 131.248C326.165 131.845 325.781 132.763 325.269 134C324.799 135.195 324.33 136.368 323.861 137.52C323.434 138.672 323.135 139.504 322.965 140.016C322.453 141.424 321.834 142.171 321.109 142.256C319.487 142.171 317.845 142.107 316.181 142.064C314.559 142.021 312.959 142 311.381 142C308.906 142 306.623 142.021 304.533 142.064C302.442 142.149 300.821 142.213 299.669 142.256ZM329.981 142.256C329.17 142.256 328.765 142.085 328.765 141.744C328.765 141.403 328.914 141.083 329.213 140.784C329.554 140.443 329.874 140.123 330.173 139.824C330.642 139.397 331.325 138.651 332.221 137.584C333.16 136.517 334.184 135.344 335.293 134.064C336.445 132.741 337.533 131.461 338.557 130.224C339.624 128.987 340.477 127.984 341.117 127.216C343.805 123.888 345.789 121.307 347.069 119.472C348.349 117.637 348.989 116.571 348.989 116.272C348.989 115.589 348.541 115.227 347.645 115.184C347.218 115.141 346.472 115.12 345.405 115.12C344.338 115.077 343.25 115.056 342.141 115.056C341.074 115.056 340.306 115.056 339.837 115.056C338.77 115.056 337.917 115.227 337.277 115.568C336.68 115.909 336.296 116.357 336.125 116.912C335.954 117.68 335.741 118.533 335.485 119.472C335.272 120.368 335.144 121.051 335.101 121.52L333.053 121.968C333.181 121.499 333.373 120.837 333.629 119.984C333.885 119.131 334.12 118.213 334.333 117.232L335.165 113.648C335.549 111.984 336.104 111.152 336.829 111.152C337.725 111.152 338.728 111.152 339.837 111.152C340.946 111.152 342.013 111.173 343.037 111.216C344.104 111.216 345 111.237 345.725 111.28C346.45 111.28 346.877 111.28 347.005 111.28C349.096 111.237 350.738 111.195 351.933 111.152C353.128 111.067 354.024 111.003 354.621 110.96C355.261 110.875 355.773 110.832 356.157 110.832C356.626 110.832 356.861 111.003 356.861 111.344C356.861 111.685 356.434 112.432 355.581 113.584C354.77 114.693 353.682 116.059 352.317 117.68C350.994 119.301 349.544 121.051 347.965 122.928C346.386 124.805 344.829 126.64 343.293 128.432C341.33 130.779 339.794 132.741 338.685 134.32C337.618 135.856 337.064 136.88 337.021 137.392C337.49 137.435 338.216 137.499 339.197 137.584C340.178 137.627 341.394 137.648 342.845 137.648C345.96 137.648 347.986 137.584 348.925 137.456C351.186 137.2 352.616 136.411 353.213 135.088C353.341 134.789 353.512 134.384 353.725 133.872C353.938 133.36 354.13 132.869 354.301 132.4C354.472 131.931 354.557 131.653 354.557 131.568L356.733 131.248C356.477 131.845 356.093 132.763 355.581 134C355.112 135.195 354.642 136.368 354.173 137.52C353.746 138.672 353.448 139.504 353.277 140.016C352.765 141.424 352.146 142.171 351.421 142.256C349.8 142.171 348.157 142.107 346.493 142.064C344.872 142.021 343.272 142 341.693 142C339.218 142 336.936 142.021 334.845 142.064C332.754 142.149 331.133 142.213 329.981 142.256ZM373.542 142.768C369.062 142.768 365.968 141.701 364.262 139.568C362.598 137.435 361.766 134.277 361.766 130.096C361.766 127.835 361.979 125.552 362.406 123.248C362.875 120.944 363.622 118.939 364.646 117.232C367.078 112.923 371.6 110.768 378.214 110.768C382.054 110.768 384.891 111.685 386.726 113.52C388.475 115.269 389.222 117.637 388.966 120.624C388.795 120.88 388.539 121.221 388.198 121.648C387.856 122.032 387.43 122.523 386.918 123.12C386.363 123.845 385.872 124.421 385.446 124.848C385.062 125.232 384.763 125.403 384.55 125.36C384.08 125.317 383.568 125.296 383.014 125.296C382.502 125.253 381.968 125.232 381.414 125.232C380.432 125.232 379.536 125.253 378.726 125.296C377.915 125.296 377.083 125.296 376.23 125.296C375.334 125.296 374.267 125.317 373.03 125.36C371.792 125.403 370.64 125.467 369.574 125.552C368.507 125.595 367.76 125.637 367.334 125.68C367.206 127.387 367.142 128.923 367.142 130.288C367.142 133.573 367.718 136.048 368.87 137.712C370.064 139.376 372.283 140.208 375.526 140.208C381.158 140.208 384.678 137.627 386.086 132.464C386.128 132.251 386.15 132.059 386.15 131.888C386.15 131.717 386.171 131.589 386.214 131.504L388.134 130.608C388.091 130.992 388.006 131.568 387.878 132.336C387.792 133.104 387.686 134.128 387.558 135.408C387.558 135.835 387.558 136.304 387.558 136.816C387.558 137.328 387.536 137.904 387.494 138.544C387.366 139.099 387.024 139.589 386.47 140.016C385.488 140.955 383.888 141.637 381.67 142.064C379.494 142.533 376.784 142.768 373.542 142.768ZM371.942 122.8C372.411 122.8 372.923 122.8 373.478 122.8C374.075 122.8 374.694 122.779 375.333 122.736C377.126 122.693 378.662 122.629 379.942 122.544C381.264 122.459 382.331 122.373 383.142 122.288C383.824 122.16 384.23 121.541 384.358 120.432C384.358 118.128 383.739 116.357 382.502 115.12C381.264 113.84 379.494 113.2 377.19 113.2C372.71 113.2 369.787 115.248 368.422 119.344C368.251 119.941 368.102 120.475 367.974 120.944C367.888 121.413 367.803 121.947 367.718 122.544C368.144 122.629 368.699 122.693 369.382 122.736C370.107 122.779 370.96 122.8 371.942 122.8ZM391.752 142.512L392.84 140.464C392.968 140.507 393.096 140.528 393.224 140.528C393.394 140.528 393.565 140.528 393.736 140.528C394.845 140.528 395.976 140.272 397.128 139.76C398.28 139.248 399.026 138.48 399.368 137.456C399.538 136.987 399.688 136.155 399.816 134.96C399.986 133.723 400.136 132.315 400.264 130.736C400.434 129.115 400.584 127.493 400.712 125.872C400.84 124.208 400.925 122.693 400.968 121.328C401.053 119.963 401.095 118.917 401.095 118.192C401.095 116.571 401.01 115.376 400.84 114.608C400.669 113.797 400.221 113.264 399.496 113.008C398.813 112.752 397.682 112.624 396.104 112.624C395.592 112.624 395.144 112.645 394.76 112.688C394.376 112.731 394.013 112.816 393.672 112.944L394.76 111.024C394.888 111.067 395.592 111.131 396.872 111.216C398.194 111.259 399.837 111.28 401.8 111.28C402.696 111.28 403.506 111.259 404.232 111.216C404.957 111.131 405.426 111.088 405.64 111.088C406.28 111.088 406.6 111.408 406.6 112.048C406.6 112.176 406.514 112.667 406.344 113.52C406.216 114.373 406.045 115.248 405.832 116.144C406.173 115.803 406.642 115.397 407.24 114.928C407.88 114.416 408.541 113.883 409.224 113.328C411.272 111.792 413.448 111.024 415.752 111.024C417.928 111.024 419.506 111.515 420.488 112.496C421.512 113.435 422.024 114.864 422.024 116.784C422.024 117.253 421.81 117.744 421.384 118.256C421 118.768 420.552 119.237 420.04 119.664C419.528 120.091 419.101 120.411 418.76 120.624L417.8 120.304C417.842 120.133 417.864 119.963 417.864 119.792C417.864 119.621 417.864 119.451 417.864 119.28C417.864 118.555 417.736 117.787 417.48 116.976C417.266 116.165 416.861 115.483 416.264 114.928C415.666 114.373 414.813 114.096 413.704 114.096C412.637 114.096 411.442 114.523 410.12 115.376C408.797 116.187 407.688 117.211 406.792 118.448C406.152 119.301 405.725 120.091 405.512 120.816C405.298 121.499 405.17 122.309 405.128 123.248C405.128 124.144 405.085 125.339 405 126.832C404.957 128.155 404.914 129.52 404.872 130.928C404.829 132.336 404.808 133.659 404.808 134.896C404.808 135.451 404.808 135.963 404.808 136.432C404.808 136.901 404.829 137.349 404.872 137.776C404.957 138.885 405.533 139.653 406.6 140.08C407.709 140.464 408.925 140.656 410.248 140.656C411.144 140.656 411.997 140.592 412.808 140.464L411.656 142.384C410.589 142.256 409.245 142.149 407.624 142.064C406.002 141.979 404.082 141.936 401.864 141.936C399.645 141.936 397.682 141.979 395.976 142.064C394.269 142.192 392.861 142.341 391.752 142.512ZM445.497 142.704C444.302 142.704 443.534 142.277 443.193 141.424C442.852 140.571 442.681 139.205 442.681 137.328C441.742 137.968 440.676 138.693 439.481 139.504C438.329 140.272 437.049 140.955 435.641 141.552C434.233 142.149 432.697 142.448 431.033 142.448C429.028 142.448 427.406 141.68 426.169 140.144C424.932 138.565 424.313 136.603 424.313 134.256C424.313 132.635 424.676 131.461 425.401 130.736C426.169 130.011 426.937 129.371 427.705 128.816C428.132 128.517 428.708 128.091 429.433 127.536C430.158 126.981 430.905 126.448 431.673 125.936C432.484 125.381 433.145 124.997 433.657 124.784C434.297 124.528 435.214 124.336 436.409 124.208C437.646 124.037 438.926 123.909 440.249 123.824C441.614 123.739 442.788 123.696 443.769 123.696C443.897 122.459 443.961 121.328 443.961 120.304C443.961 118.213 443.62 116.592 442.937 115.44C442.254 114.288 441.06 113.712 439.353 113.712C436.537 113.712 434.19 114.48 432.313 116.016C431.374 116.827 430.628 117.637 430.073 118.448C429.518 119.216 429.241 120.304 429.241 121.712L429.305 123.568L427.577 124.784C427.577 124.571 427.577 124.357 427.577 124.144C427.62 123.888 427.641 123.675 427.641 123.504C427.641 122.821 427.598 122.16 427.513 121.52C427.428 120.837 427.3 120.069 427.129 119.216C427.001 118.491 426.894 117.979 426.809 117.68C426.766 117.381 426.745 117.168 426.745 117.04C426.745 116.528 427.044 115.973 427.641 115.376C428.281 114.779 428.814 114.331 429.241 114.032C430.82 113.008 432.697 112.304 434.873 111.92C437.092 111.493 439.182 111.28 441.145 111.28C444.004 111.28 446.052 111.899 447.289 113.136C448.526 114.331 449.145 115.888 449.145 117.808C449.145 119.259 449.081 120.923 448.953 122.8C448.868 124.635 448.761 126.491 448.633 128.368C448.548 130.245 448.441 131.995 448.313 133.616C448.228 135.195 448.185 136.496 448.185 137.52C448.185 138.672 448.526 139.461 449.209 139.888C449.892 140.272 450.809 140.464 451.961 140.464C452.26 140.464 452.558 140.464 452.857 140.464C453.198 140.421 453.54 140.379 453.881 140.336L454.201 140.72L453.177 142.448C452.836 142.405 452.281 142.384 451.513 142.384C450.745 142.427 449.934 142.469 449.081 142.512C448.228 142.555 447.46 142.597 446.777 142.64C446.137 142.683 445.71 142.704 445.497 142.704ZM434.233 138.288C435.172 138.288 436.174 138.117 437.241 137.776C438.308 137.392 439.225 136.987 439.993 136.56C441.102 135.792 441.849 135.003 442.233 134.192C442.66 133.381 442.937 132.379 443.065 131.184C443.193 129.947 443.342 128.389 443.513 126.512C440.953 126.597 438.841 126.768 437.177 127.024C435.556 127.237 434.254 127.515 433.273 127.856C431.865 128.368 430.82 129.136 430.137 130.16C429.454 131.184 429.113 132.251 429.113 133.36C429.113 134.64 429.54 135.792 430.393 136.816C431.289 137.797 432.569 138.288 434.233 138.288Z" fill="white"/>
<ellipse cx="79" cy="81" rx="79" ry="81" fill="#D9D9D9"/>
</svg>
